<svg width="23" height="23" viewBox="0 0 23 23" fill="none" xmlns="http://www.w3.org/2000/svg">
<path d="M18.2083 16.2916H20.125C20.7 16.2916 21.0833 15.9083 21.0833 15.3333V12.4583C21.0833 11.5958 20.4125 10.8291 19.6458 10.6374C17.9208 10.1583 15.3333 9.58325 15.3333 9.58325C15.3333 9.58325 14.0875 8.24159 13.225 7.37909C12.7458 6.99575 12.1708 6.70825 11.5 6.70825H4.79163C4.21663 6.70825 3.73746 7.09159 3.44996 7.57075L2.10829 10.3499C1.98139 10.7201 1.91663 11.1086 1.91663 11.4999V15.3333C1.91663 15.9083 2.29996 16.2916 2.87496 16.2916H4.79163M18.2083 16.2916C18.2083 17.3501 17.3502 18.2083 16.2916 18.2083C15.2331 18.2083 14.375 17.3501 14.375 16.2916M18.2083 16.2916C18.2083 15.233 17.3502 14.3749 16.2916 14.3749C15.2331 14.3749 14.375 15.233 14.375 16.2916M4.79163 16.2916C4.79163 17.3501 5.64975 18.2083 6.70829 18.2083C7.76684 18.2083 8.62496 17.3501 8.62496 16.2916M4.79163 16.2916C4.79163 15.233 5.64975 14.3749 6.70829 14.3749C7.76684 14.3749 8.62496 15.233 8.62496 16.2916M8.62496 16.2916H14.375" stroke="#4CAF50" stroke-linecap="round" stroke-linejoin="round"/>
</svg>
