<svg width="82" height="60" viewBox="0 0 82 60" fill="none" xmlns="http://www.w3.org/2000/svg">
<path d="M3.00006 6.7971C5.27832 8.69565 7.55658 10.5942 12.4928 10.5942C21.9856 10.5942 21.9856 3 31.4783 3C41.3508 3 40.5914 10.5942 50.4638 10.5942C59.9566 10.5942 59.9566 3 69.4493 3C74.3856 3 76.6638 4.89855 78.9421 6.7971M3.00006 29.5797C5.27832 31.4783 7.55658 33.3768 12.4928 33.3768C21.9856 33.3768 21.9856 25.7826 31.4783 25.7826C41.3508 25.7826 40.5914 33.3768 50.4638 33.3768C59.9566 33.3768 59.9566 25.7826 69.4493 25.7826C74.3856 25.7826 76.6638 27.6812 78.9421 29.5797M3.00006 52.3623C5.27832 54.2609 7.55658 56.1594 12.4928 56.1594C21.9856 56.1594 21.9856 48.5652 31.4783 48.5652C41.3508 48.5652 40.5914 56.1594 50.4638 56.1594C59.9566 56.1594 59.9566 48.5652 69.4493 48.5652C74.3856 48.5652 76.6638 50.4638 78.9421 52.3623" stroke="#039BE5" stroke-width="6" stroke-linecap="round"/>
</svg>
